<svg width="1728" height="1117" viewBox="0 0 1728 1117" fill="none" xmlns="http://www.w3.org/2000/svg">
<path d="M524.846 985.473C406.81 955.035 283.59 940.514 162.746 958.386C107.453 966.345 52.9166 981.564 0 1005.02V1117H911.246C786.082 1070.64 661.998 1021.92 535.862 988.266C532.19 987.288 528.518 986.451 524.846 985.473Z" fill="#72D5FF"/>
<path d="M1727.89 0H0V1005.02C52.9166 981.564 107.453 966.205 162.746 958.246C283.59 940.514 406.81 954.896 524.846 985.334C528.518 986.311 532.19 987.289 535.862 988.126C661.998 1021.64 786.082 1070.51 911.246 1116.86H1727.89V0Z" fill="#6DB2FF"/>
<path d="M516.639 811.221C520.095 812.338 523.55 813.595 526.898 814.712C738.781 888.015 946.667 1001.11 1167.84 1061.29C1355.96 1112.39 1545.27 1102.06 1727.89 1047.05V0H0V802.704C56.4804 778.13 115.013 764.028 173.977 759.56C289.853 750.345 405.73 773.802 516.639 811.221Z" fill="#678EFF"/>
<path d="M0 0V599.55C60.0441 573.859 122.572 561.432 185.1 560.874C296.117 559.757 404.542 592.569 508.323 636.969C511.563 638.366 514.695 639.762 517.935 641.158C716.21 727.726 912.865 845.15 1125.29 909.378C1326.91 970.394 1531.67 957.409 1727.78 891.785V0H0Z" fill="#6266FF"/>
<path d="M196.331 362.187C302.381 370.565 403.57 411.335 500.116 462.857C503.14 464.393 506.056 466.068 509.079 467.604C693.748 567.576 879.172 688.91 1082.85 757.605C1297.54 829.931 1518.49 814.572 1727.89 736.941V0H0V395.418C63.7159 368.051 130.24 357.021 196.331 362.187Z" fill="#7D5DFF"/>
<path d="M1727.89 0H0V190.309C67.2797 161.127 137.907 151.912 207.563 163.501C308.644 180.396 402.49 230.102 491.909 288.605C494.716 290.42 497.416 292.235 500.224 294.05C671.285 407.286 845.478 532.669 1040.51 605.693C1267.84 690.865 1505.75 674.11 1728 582.516V0H1727.89Z" fill="#A16AFF"/>
<path d="M491.261 120.496C648.715 247.136 811.677 376.01 997.966 453.781C1223.24 547.888 1463.74 538.673 1686.85 446.381C1700.68 440.657 1714.29 434.653 1728 428.369V0H311.128C371.604 29.7401 428.517 70.6503 483.593 114.493C486.185 116.447 488.669 118.542 491.261 120.496Z" fill="#C078FF"/>
<path d="M1727.89 0H537.805C665.346 119.798 800.769 229.683 955.523 301.869C1162.65 398.49 1387.5 406.169 1598.08 331.33C1642.14 315.692 1685.67 296.145 1728 273.107V0H1727.89Z" fill="#DA85FF"/>
<path d="M1509.2 216.14C1560.18 201.339 1610.28 180.814 1658.88 154.984C1682.32 142.557 1705.32 128.734 1727.89 113.794V0H694.828C762.755 58.2236 834.895 109.187 913.082 149.957C1101.96 248.672 1311.25 273.805 1509.2 216.14Z" fill="#F093FF"/>
<path d="M1420.43 101.088C1501.75 83.4957 1581.23 49.2876 1654.56 0H873.772C1044.08 99.1337 1236.2 141.021 1420.43 101.088Z" fill="#FFA0FC"/>
</svg>